# Wavefront OBJ file automatically generated by Tiled2Unity

# Vertices (Count = 224)
v 0 -1 0
v -1 -1 0
v -1 0 0
v 0 0 0
v -2 -1 0
v -2 0 0
v -3 -1 0
v -3 0 0
v -4 -1 0
v -4 0 0
v -5 -1 0
v -5 0 0
v -6 -1 0
v -6 0 0
v -7 -1 0
v -7 0 0
v -8 -1 0
v -8 0 0
v -9 -1 0
v -9 0 0
v -10 -1 0
v -10 0 0
v -11 -1 0
v -11 0 0
v -12 -1 0
v -12 0 0
v 0 -2 0
v -1 -2 0
v -2 -2 0
v -3 -2 0
v -4 -2 0
v -5 -2 0
v -6 -2 0
v -7 -2 0
v -8 -2 0
v -9 -2 0
v -10 -2 0
v -11 -2 0
v -12 -2 0
v 0 -3 0
v -1 -3 0
v -2 -3 0
v -3 -3 0
v -4 -3 0
v -5 -3 0
v -6 -3 0
v -7 -3 0
v -8 -3 0
v -9 -3 0
v -10 -3 0
v -11 -3 0
v -12 -3 0
v 0 -4 0
v -1 -4 0
v -2 -4 0
v -3 -4 0
v -4 -4 0
v -5 -4 0
v -6 -4 0
v -7 -4 0
v -8 -4 0
v -9 -4 0
v -10 -4 0
v -11 -4 0
v -12 -4 0
v 0 -5 0
v -1 -5 0
v -2 -5 0
v -3 -5 0
v -4 -5 0
v -5 -5 0
v -6 -5 0
v -7 -5 0
v -8 -5 0
v -9 -5 0
v -10 -5 0
v -11 -5 0
v -12 -5 0
v 0 -6 0
v -1 -6 0
v -2 -6 0
v -3 -6 0
v -4 -6 0
v -5 -6 0
v -6 -6 0
v -7 -6 0
v -8 -6 0
v -9 -6 0
v -10 -6 0
v -11 -6 0
v -12 -6 0
v 0 -7 0
v -1 -7 0
v -2 -7 0
v -3 -7 0
v -4 -7 0
v -5 -7 0
v -6 -7 0
v -7 -7 0
v -8 -7 0
v -9 -7 0
v -10 -7 0
v -11 -7 0
v -12 -7 0
v 0 -8 0
v -1 -8 0
v -2 -8 0
v -3 -8 0
v -4 -8 0
v -5 -8 0
v -6 -8 0
v -7 -8 0
v -8 -8 0
v -9 -8 0
v -10 -8 0
v -11 -8 0
v -12 -8 0
v 0 -9 0
v -1 -9 0
v -2 -9 0
v -3 -9 0
v -4 -9 0
v -5 -9 0
v -6 -9 0
v -7 -9 0
v -8 -9 0
v -9 -9 0
v -10 -9 0
v -11 -9 0
v -12 -9 0
v 0 -10 0
v -1 -10 0
v -2 -10 0
v -3 -10 0
v -4 -10 0
v -5 -10 0
v -6 -10 0
v -7 -10 0
v -8 -10 0
v -9 -10 0
v -10 -10 0
v -11 -10 0
v -12 -10 0
v 0 -11 0
v -1 -11 0
v -2 -11 0
v -3 -11 0
v -4 -11 0
v -5 -11 0
v -6 -11 0
v -7 -11 0
v -8 -11 0
v -9 -11 0
v -10 -11 0
v -11 -11 0
v -12 -11 0
v 0 -12 0
v -1 -12 0
v -2 -12 0
v -3 -12 0
v -4 -12 0
v -5 -12 0
v -6 -12 0
v -7 -12 0
v -8 -12 0
v -9 -12 0
v -10 -12 0
v -11 -12 0
v -12 -12 0
v 0 -13 0
v -1 -13 0
v -2 -13 0
v -3 -13 0
v -4 -13 0
v -5 -13 0
v -6 -13 0
v -7 -13 0
v -8 -13 0
v -9 -13 0
v -10 -13 0
v -11 -13 0
v -12 -13 0
v 0 -14 0
v -1 -14 0
v -2 -14 0
v -3 -14 0
v -4 -14 0
v -5 -14 0
v -6 -14 0
v -7 -14 0
v -8 -14 0
v -9 -14 0
v -10 -14 0
v -11 -14 0
v -12 -14 0
v 0 -15 0
v -1 -15 0
v -2 -15 0
v -3 -15 0
v -4 -15 0
v -5 -15 0
v -6 -15 0
v -7 -15 0
v -8 -15 0
v -9 -15 0
v -10 -15 0
v -11 -15 0
v -12 -15 0
v 0 -16 0
v -1 -16 0
v -2 -16 0
v -3 -16 0
v -4 -16 0
v -5 -16 0
v -6 -16 0
v -7 -16 0
v -8 -16 0
v -9 -16 0
v -10 -16 0
v -11 -16 0
v -12 -16 0
v -5 -17 0
v -6 -17 0
v -7 -17 0

# Texture cooridinates (Count = 112)
vt 0.1404979 0.9049467
vt 0.1570228 0.9049467
vt 0.1570228 0.9353575
vt 0.1404979 0.9353575
vt 0.2985557 0.2908782
vt 0.3150806 0.2908782
vt 0.3150806 0.3212891
vt 0.2985557 0.3212891
vt 0.3161177 0.2908782
vt 0.3326426 0.2908782
vt 0.3326426 0.3212891
vt 0.3161177 0.3212891
vt 0.3336797 0.2908782
vt 0.3502046 0.2908782
vt 0.3502046 0.3212891
vt 0.3336797 0.3212891
vt 0.2985557 0.2585589
vt 0.3150806 0.2585589
vt 0.3150806 0.2889697
vt 0.2985557 0.2889697
vt 0.3161177 0.2585589
vt 0.3326426 0.2585589
vt 0.3326426 0.2889697
vt 0.3161177 0.2889697
vt 0.3336797 0.2585589
vt 0.3502046 0.2585589
vt 0.3502046 0.2889697
vt 0.3336797 0.2889697
vt 0.2985557 0.2262394
vt 0.3150806 0.2262394
vt 0.3150806 0.2566503
vt 0.2985557 0.2566503
vt 0.3161177 0.2262394
vt 0.3326426 0.2262394
vt 0.3326426 0.2566503
vt 0.3161177 0.2566503
vt 0.3336797 0.2262394
vt 0.3502046 0.2262394
vt 0.3502046 0.2566503
vt 0.3336797 0.2566503
vt 0.2458698 0.1939201
vt 0.2623947 0.1939201
vt 0.2623947 0.2243309
vt 0.2458698 0.2243309
vt 0.2809938 0.5817528
vt 0.2975186 0.5817528
vt 0.2975186 0.6121635
vt 0.2809938 0.6121635
vt 0.2458698 0.5817528
vt 0.2623947 0.5817528
vt 0.2623947 0.6121635
vt 0.2458698 0.6121635
vt 0.2985557 0.5817528
vt 0.3150806 0.5817528
vt 0.3150806 0.6121635
vt 0.2985557 0.6121635
vt 0.2634318 0.5494334
vt 0.2799567 0.5494334
vt 0.2799567 0.5798442
vt 0.2634318 0.5798442
vt 0.8781012 0.8726273
vt 0.8946261 0.8726273
vt 0.8946261 0.9030381
vt 0.8781012 0.9030381
vt 0.8781012 0.8403079
vt 0.8946261 0.8403079
vt 0.8946261 0.8707187
vt 0.8781012 0.8707187
vt 0.3161177 0.7110304
vt 0.3326426 0.7110304
vt 0.3326426 0.7414411
vt 0.3161177 0.7414411
vt 0.8781012 0.8079885
vt 0.8946261 0.8079885
vt 0.8946261 0.8383994
vt 0.8781012 0.8383994
vt 0.9659111 0.6787109
vt 0.982436 0.6787109
vt 0.982436 0.7091218
vt 0.9659111 0.7091218
vt 0.9659111 0.6463915
vt 0.982436 0.6463915
vt 0.982436 0.6768024
vt 0.9659111 0.6768024
vt 0.3336797 0.8079885
vt 0.3502046 0.8079885
vt 0.3502046 0.8383994
vt 0.3336797 0.8383994
vt 0.3336797 0.7756691
vt 0.3502046 0.7756691
vt 0.3502046 0.8060799
vt 0.3336797 0.8060799
vt 0.3688037 0.7756691
vt 0.3853286 0.7756691
vt 0.3853286 0.8060799
vt 0.3688037 0.8060799
vt 0.3512417 0.7756691
vt 0.3677666 0.7756691
vt 0.3677666 0.8060799
vt 0.3512417 0.8060799
vt 0.3863657 0.8079885
vt 0.4028905 0.8079885
vt 0.4028905 0.8383994
vt 0.3863657 0.8383994
vt 0.3512417 0.8079885
vt 0.3677666 0.8079885
vt 0.3677666 0.8383994
vt 0.3512417 0.8383994
vt 0.2283078 0.517114
vt 0.2448327 0.517114
vt 0.2448327 0.5475248
vt 0.2283078 0.5475248

# Normal
vn 0 0 -1

# Groups (Count = 2)

g mesh_0001
f 1/1/1 2/2/1 3/3/1 4/4/1
f 2/1/1 5/2/1 6/3/1 3/4/1
f 5/1/1 7/2/1 8/3/1 6/4/1
f 7/1/1 9/2/1 10/3/1 8/4/1
f 9/1/1 11/2/1 12/3/1 10/4/1
f 11/1/1 13/2/1 14/3/1 12/4/1
f 13/1/1 15/2/1 16/3/1 14/4/1
f 15/1/1 17/2/1 18/3/1 16/4/1
f 17/1/1 19/2/1 20/3/1 18/4/1
f 19/1/1 21/2/1 22/3/1 20/4/1
f 21/1/1 23/2/1 24/3/1 22/4/1
f 23/1/1 25/2/1 26/3/1 24/4/1
f 27/1/1 28/2/1 2/3/1 1/4/1
f 28/5/1 29/6/1 5/7/1 2/8/1
f 29/9/1 30/10/1 7/11/1 5/12/1
f 30/9/1 31/10/1 9/11/1 7/12/1
f 31/9/1 32/10/1 11/11/1 9/12/1
f 32/9/1 33/10/1 13/11/1 11/12/1
f 33/9/1 34/10/1 15/11/1 13/12/1
f 34/9/1 35/10/1 17/11/1 15/12/1
f 35/9/1 36/10/1 19/11/1 17/12/1
f 36/9/1 37/10/1 21/11/1 19/12/1
f 37/13/1 38/14/1 23/15/1 21/16/1
f 38/1/1 39/2/1 25/3/1 23/4/1
f 40/1/1 41/2/1 28/3/1 27/4/1
f 41/17/1 42/18/1 29/19/1 28/20/1
f 42/21/1 43/22/1 30/23/1 29/24/1
f 43/21/1 44/22/1 31/23/1 30/24/1
f 44/21/1 45/22/1 32/23/1 31/24/1
f 45/21/1 46/22/1 33/23/1 32/24/1
f 46/21/1 47/22/1 34/23/1 33/24/1
f 47/21/1 48/22/1 35/23/1 34/24/1
f 48/21/1 49/22/1 36/23/1 35/24/1
f 49/21/1 50/22/1 37/23/1 36/24/1
f 50/25/1 51/26/1 38/27/1 37/28/1
f 51/1/1 52/2/1 39/3/1 38/4/1
f 53/1/1 54/2/1 41/3/1 40/4/1
f 54/17/1 55/18/1 42/19/1 41/20/1
f 55/21/1 56/22/1 43/23/1 42/24/1
f 56/21/1 57/22/1 44/23/1 43/24/1
f 57/21/1 58/22/1 45/23/1 44/24/1
f 58/21/1 59/22/1 46/23/1 45/24/1
f 59/21/1 60/22/1 47/23/1 46/24/1
f 60/21/1 61/22/1 48/23/1 47/24/1
f 61/21/1 62/22/1 49/23/1 48/24/1
f 62/21/1 63/22/1 50/23/1 49/24/1
f 63/25/1 64/26/1 51/27/1 50/28/1
f 64/1/1 65/2/1 52/3/1 51/4/1
f 66/1/1 67/2/1 54/3/1 53/4/1
f 67/17/1 68/18/1 55/19/1 54/20/1
f 68/21/1 69/22/1 56/23/1 55/24/1
f 69/21/1 70/22/1 57/23/1 56/24/1
f 70/21/1 71/22/1 58/23/1 57/24/1
f 71/21/1 72/22/1 59/23/1 58/24/1
f 72/21/1 73/22/1 60/23/1 59/24/1
f 73/21/1 74/22/1 61/23/1 60/24/1
f 74/21/1 75/22/1 62/23/1 61/24/1
f 75/21/1 76/22/1 63/23/1 62/24/1
f 76/25/1 77/26/1 64/27/1 63/28/1
f 77/1/1 78/2/1 65/3/1 64/4/1
f 79/1/1 80/2/1 67/3/1 66/4/1
f 80/29/1 81/30/1 68/31/1 67/32/1
f 81/33/1 82/34/1 69/35/1 68/36/1
f 82/33/1 83/34/1 70/35/1 69/36/1
f 83/33/1 84/34/1 71/35/1 70/36/1
f 84/33/1 85/34/1 72/35/1 71/36/1
f 85/33/1 86/34/1 73/35/1 72/36/1
f 86/33/1 87/34/1 74/35/1 73/36/1
f 87/33/1 88/34/1 75/35/1 74/36/1
f 88/33/1 89/34/1 76/35/1 75/36/1
f 89/37/1 90/38/1 77/39/1 76/40/1
f 90/1/1 91/2/1 78/3/1 77/4/1
f 92/1/1 93/2/1 80/3/1 79/4/1
f 93/1/1 94/2/1 81/3/1 80/4/1
f 94/1/1 95/2/1 82/3/1 81/4/1
f 95/1/1 96/2/1 83/3/1 82/4/1
f 96/1/1 97/2/1 84/3/1 83/4/1
f 97/1/1 98/2/1 85/3/1 84/4/1
f 98/1/1 99/2/1 86/3/1 85/4/1
f 99/1/1 100/2/1 87/3/1 86/4/1
f 100/1/1 101/2/1 88/3/1 87/4/1
f 101/1/1 102/2/1 89/3/1 88/4/1
f 102/1/1 103/2/1 90/3/1 89/4/1
f 103/1/1 104/2/1 91/3/1 90/4/1
f 105/1/1 106/2/1 93/3/1 92/4/1
f 106/1/1 107/2/1 94/3/1 93/4/1
f 107/1/1 108/2/1 95/3/1 94/4/1
f 108/1/1 109/2/1 96/3/1 95/4/1
f 109/1/1 110/2/1 97/3/1 96/4/1
f 110/1/1 111/2/1 98/3/1 97/4/1
f 111/1/1 112/2/1 99/3/1 98/4/1
f 112/1/1 113/2/1 100/3/1 99/4/1
f 113/1/1 114/2/1 101/3/1 100/4/1
f 114/1/1 115/2/1 102/3/1 101/4/1
f 115/1/1 116/2/1 103/3/1 102/4/1
f 116/1/1 117/2/1 104/3/1 103/4/1
f 118/1/1 119/2/1 106/3/1 105/4/1
f 119/1/1 120/2/1 107/3/1 106/4/1
f 120/1/1 121/2/1 108/3/1 107/4/1
f 121/1/1 122/2/1 109/3/1 108/4/1
f 122/1/1 123/2/1 110/3/1 109/4/1
f 123/1/1 124/2/1 111/3/1 110/4/1
f 124/1/1 125/2/1 112/3/1 111/4/1
f 125/1/1 126/2/1 113/3/1 112/4/1
f 126/1/1 127/2/1 114/3/1 113/4/1
f 127/1/1 128/2/1 115/3/1 114/4/1
f 128/1/1 129/2/1 116/3/1 115/4/1
f 129/1/1 130/2/1 117/3/1 116/4/1
f 131/1/1 132/2/1 119/3/1 118/4/1
f 132/1/1 133/2/1 120/3/1 119/4/1
f 133/1/1 134/2/1 121/3/1 120/4/1
f 134/1/1 135/2/1 122/3/1 121/4/1
f 135/1/1 136/2/1 123/3/1 122/4/1
f 136/1/1 137/2/1 124/3/1 123/4/1
f 137/1/1 138/2/1 125/3/1 124/4/1
f 138/1/1 139/2/1 126/3/1 125/4/1
f 139/1/1 140/2/1 127/3/1 126/4/1
f 140/1/1 141/2/1 128/3/1 127/4/1
f 141/1/1 142/2/1 129/3/1 128/4/1
f 142/1/1 143/2/1 130/3/1 129/4/1
f 144/1/1 145/2/1 132/3/1 131/4/1
f 145/1/1 146/2/1 133/3/1 132/4/1
f 146/1/1 147/2/1 134/3/1 133/4/1
f 147/1/1 148/2/1 135/3/1 134/4/1
f 148/1/1 149/2/1 136/3/1 135/4/1
f 149/1/1 150/2/1 137/3/1 136/4/1
f 150/1/1 151/2/1 138/3/1 137/4/1
f 151/1/1 152/2/1 139/3/1 138/4/1
f 152/1/1 153/2/1 140/3/1 139/4/1
f 153/1/1 154/2/1 141/3/1 140/4/1
f 154/1/1 155/2/1 142/3/1 141/4/1
f 155/1/1 156/2/1 143/3/1 142/4/1
f 157/1/1 158/2/1 145/3/1 144/4/1
f 158/1/1 159/2/1 146/3/1 145/4/1
f 159/1/1 160/2/1 147/3/1 146/4/1
f 160/1/1 161/2/1 148/3/1 147/4/1
f 161/1/1 162/2/1 149/3/1 148/4/1
f 162/1/1 163/2/1 150/3/1 149/4/1
f 163/1/1 164/2/1 151/3/1 150/4/1
f 164/1/1 165/2/1 152/3/1 151/4/1
f 165/1/1 166/2/1 153/3/1 152/4/1
f 166/1/1 167/2/1 154/3/1 153/4/1
f 167/1/1 168/2/1 155/3/1 154/4/1
f 168/1/1 169/2/1 156/3/1 155/4/1
f 170/1/1 171/2/1 158/3/1 157/4/1
f 171/1/1 172/2/1 159/3/1 158/4/1
f 172/1/1 173/2/1 160/3/1 159/4/1
f 173/1/1 174/2/1 161/3/1 160/4/1
f 174/1/1 175/2/1 162/3/1 161/4/1
f 175/1/1 176/2/1 163/3/1 162/4/1
f 176/1/1 177/2/1 164/3/1 163/4/1
f 177/1/1 178/2/1 165/3/1 164/4/1
f 178/1/1 179/2/1 166/3/1 165/4/1
f 179/1/1 180/2/1 167/3/1 166/4/1
f 180/1/1 181/2/1 168/3/1 167/4/1
f 181/1/1 182/2/1 169/3/1 168/4/1
f 183/1/1 184/2/1 171/3/1 170/4/1
f 184/1/1 185/2/1 172/3/1 171/4/1
f 185/1/1 186/2/1 173/3/1 172/4/1
f 186/1/1 187/2/1 174/3/1 173/4/1
f 187/1/1 188/2/1 175/3/1 174/4/1
f 188/1/1 189/2/1 176/3/1 175/4/1
f 189/1/1 190/2/1 177/3/1 176/4/1
f 190/1/1 191/2/1 178/3/1 177/4/1
f 191/1/1 192/2/1 179/3/1 178/4/1
f 192/1/1 193/2/1 180/3/1 179/4/1
f 193/1/1 194/2/1 181/3/1 180/4/1
f 194/1/1 195/2/1 182/3/1 181/4/1
f 196/1/1 197/2/1 184/3/1 183/4/1
f 197/1/1 198/2/1 185/3/1 184/4/1
f 198/1/1 199/2/1 186/3/1 185/4/1
f 199/1/1 200/2/1 187/3/1 186/4/1
f 200/1/1 201/2/1 188/3/1 187/4/1
f 201/1/1 202/2/1 189/3/1 188/4/1
f 202/1/1 203/2/1 190/3/1 189/4/1
f 203/1/1 204/2/1 191/3/1 190/4/1
f 204/1/1 205/2/1 192/3/1 191/4/1
f 205/1/1 206/2/1 193/3/1 192/4/1
f 206/1/1 207/2/1 194/3/1 193/4/1
f 207/1/1 208/2/1 195/3/1 194/4/1
f 209/41/1 210/42/1 197/43/1 196/44/1
f 210/1/1 211/2/1 198/3/1 197/4/1
f 211/1/1 212/2/1 199/3/1 198/4/1
f 212/1/1 213/2/1 200/3/1 199/4/1
f 213/1/1 214/2/1 201/3/1 200/4/1
f 214/1/1 215/2/1 202/3/1 201/4/1
f 215/1/1 216/2/1 203/3/1 202/4/1
f 216/1/1 217/2/1 204/3/1 203/4/1
f 217/1/1 218/2/1 205/3/1 204/4/1
f 218/1/1 219/2/1 206/3/1 205/4/1
f 219/1/1 220/2/1 207/3/1 206/4/1
f 220/1/1 221/2/1 208/3/1 207/4/1
f 222/1/1 223/2/1 215/3/1 214/4/1
f 223/1/1 224/2/1 216/3/1 215/4/1

g mesh_0002
f 1/45/1 2/46/1 3/47/1 4/48/1
f 2/49/1 5/50/1 6/51/1 3/52/1
f 5/49/1 7/50/1 8/51/1 6/52/1
f 7/49/1 9/50/1 10/51/1 8/52/1
f 9/49/1 11/50/1 12/51/1 10/52/1
f 11/49/1 13/50/1 14/51/1 12/52/1
f 13/49/1 15/50/1 16/51/1 14/52/1
f 15/49/1 17/50/1 18/51/1 16/52/1
f 17/49/1 19/50/1 20/51/1 18/52/1
f 19/49/1 21/50/1 22/51/1 20/52/1
f 21/49/1 23/50/1 24/51/1 22/52/1
f 23/53/1 25/54/1 26/55/1 24/56/1
f 27/57/1 28/58/1 2/59/1 1/60/1
f 38/57/1 39/58/1 25/59/1 23/60/1
f 40/57/1 41/58/1 28/59/1 27/60/1
f 42/61/1 43/62/1 30/63/1 29/64/1
f 49/61/1 50/62/1 37/63/1 36/64/1
f 51/57/1 52/58/1 39/59/1 38/60/1
f 53/57/1 54/58/1 41/59/1 40/60/1
f 55/65/1 56/66/1 43/67/1 42/68/1
f 62/65/1 63/66/1 50/67/1 49/68/1
f 64/57/1 65/58/1 52/59/1 51/60/1
f 66/57/1 67/58/1 54/59/1 53/60/1
f 67/69/1 68/70/1 55/71/1 54/72/1
f 68/73/1 69/74/1 56/75/1 55/76/1
f 69/69/1 70/70/1 57/71/1 56/72/1
f 71/77/1 72/78/1 59/79/1 58/80/1
f 72/77/1 73/78/1 60/79/1 59/80/1
f 74/69/1 75/70/1 62/71/1 61/72/1
f 75/73/1 76/74/1 63/75/1 62/76/1
f 76/69/1 77/70/1 64/71/1 63/72/1
f 77/57/1 78/58/1 65/59/1 64/60/1
f 79/57/1 80/58/1 67/59/1 66/60/1
f 84/81/1 85/82/1 72/83/1 71/84/1
f 85/81/1 86/82/1 73/83/1 72/84/1
f 90/57/1 91/58/1 78/59/1 77/60/1
f 92/57/1 93/58/1 80/59/1 79/60/1
f 103/57/1 104/58/1 91/59/1 90/60/1
f 105/57/1 106/58/1 93/59/1 92/60/1
f 106/85/1 107/86/1 94/87/1 93/88/1
f 107/85/1 108/86/1 95/87/1 94/88/1
f 108/85/1 109/86/1 96/87/1 95/88/1
f 116/57/1 117/58/1 104/59/1 103/60/1
f 118/57/1 119/58/1 106/59/1 105/60/1
f 119/89/1 120/90/1 107/91/1 106/92/1
f 120/93/1 121/94/1 108/95/1 107/96/1
f 121/97/1 122/98/1 109/99/1 108/100/1
f 122/101/1 123/102/1 110/103/1 109/104/1
f 129/57/1 130/58/1 117/59/1 116/60/1
f 131/57/1 132/58/1 119/59/1 118/60/1
f 132/105/1 133/106/1 120/107/1 119/108/1
f 133/105/1 134/106/1 121/107/1 120/108/1
f 134/105/1 135/106/1 122/107/1 121/108/1
f 142/57/1 143/58/1 130/59/1 129/60/1
f 144/109/1 145/110/1 132/111/1 131/112/1
f 155/109/1 156/110/1 143/111/1 142/112/1
f 157/13/1 158/14/1 145/15/1 144/16/1
f 168/5/1 169/6/1 156/7/1 155/8/1
f 170/13/1 171/14/1 158/15/1 157/16/1
f 181/5/1 182/6/1 169/7/1 168/8/1
f 183/13/1 184/14/1 171/15/1 170/16/1
f 194/5/1 195/6/1 182/7/1 181/8/1
f 196/13/1 197/14/1 184/15/1 183/16/1
f 207/5/1 208/6/1 195/7/1 194/8/1
f 209/13/1 210/14/1 197/15/1 196/16/1
f 220/5/1 221/6/1 208/7/1 207/8/1

