# Wavefront OBJ file automatically generated by Tiled2Unity

# Vertices (Count = 272)
v 0 -8 0
v -1 -8 0
v -1 -7 0
v 0 -7 0
v 0 -9 0
v -1 -9 0
v -15 -9 0
v -16 -9 0
v -16 -8 0
v -15 -8 0
v 0 -10 0
v -1 -10 0
v -15 -10 0
v -16 -10 0
v 0 -11 0
v -1 -11 0
v -15 -11 0
v -16 -11 0
v 0 -12 0
v -1 -12 0
v -15 -12 0
v -16 -12 0
v 0 -13 0
v -1 -13 0
v -2 -13 0
v -2 -12 0
v -3 -13 0
v -3 -12 0
v -4 -13 0
v -4 -12 0
v -5 -13 0
v -5 -12 0
v -6 -13 0
v -6 -12 0
v -10 -13 0
v -11 -13 0
v -11 -12 0
v -10 -12 0
v -12 -13 0
v -12 -12 0
v -13 -13 0
v -13 -12 0
v -14 -13 0
v -14 -12 0
v -15 -13 0
v -16 -13 0
v 0 -14 0
v -1 -14 0
v -2 -14 0
v -3 -14 0
v -4 -14 0
v -5 -14 0
v -6 -14 0
v -10 -14 0
v -11 -14 0
v -12 -14 0
v -13 -14 0
v -14 -14 0
v -15 -14 0
v -16 -14 0
v 0 -15 0
v -1 -15 0
v -2 -15 0
v -3 -15 0
v -4 -15 0
v -5 -15 0
v -6 -15 0
v -10 -15 0
v -11 -15 0
v -12 -15 0
v -13 -15 0
v -14 -15 0
v -15 -15 0
v -16 -15 0
v 0 -1 0
v -1 -1 0
v -1 0 0
v 0 0 0
v -2 -1 0
v -2 0 0
v -3 -1 0
v -3 0 0
v -4 -1 0
v -4 0 0
v -5 -1 0
v -5 0 0
v -6 -1 0
v -6 0 0
v -7 -1 0
v -7 0 0
v -8 -1 0
v -8 0 0
v -9 -1 0
v -9 0 0
v -10 -1 0
v -10 0 0
v -11 -1 0
v -11 0 0
v -12 -1 0
v -12 0 0
v -13 -1 0
v -13 0 0
v -14 -1 0
v -14 0 0
v -15 -1 0
v -15 0 0
v -16 -1 0
v -16 0 0
v 0 -2 0
v -1 -2 0
v -2 -2 0
v -3 -2 0
v -4 -2 0
v -5 -2 0
v -6 -2 0
v -7 -2 0
v -8 -2 0
v -9 -2 0
v -10 -2 0
v -11 -2 0
v -12 -2 0
v -13 -2 0
v -14 -2 0
v -15 -2 0
v -16 -2 0
v 0 -3 0
v -1 -3 0
v -2 -3 0
v -3 -3 0
v -4 -3 0
v -5 -3 0
v -6 -3 0
v -7 -3 0
v -8 -3 0
v -9 -3 0
v -10 -3 0
v -11 -3 0
v -12 -3 0
v -13 -3 0
v -14 -3 0
v -15 -3 0
v -16 -3 0
v 0 -4 0
v -1 -4 0
v -2 -4 0
v -3 -4 0
v -4 -4 0
v -5 -4 0
v -6 -4 0
v -7 -4 0
v -8 -4 0
v -9 -4 0
v -10 -4 0
v -11 -4 0
v -12 -4 0
v -13 -4 0
v -14 -4 0
v -15 -4 0
v -16 -4 0
v 0 -5 0
v -1 -5 0
v -2 -5 0
v -3 -5 0
v -4 -5 0
v -5 -5 0
v -6 -5 0
v -7 -5 0
v -8 -5 0
v -9 -5 0
v -10 -5 0
v -11 -5 0
v -12 -5 0
v -13 -5 0
v -14 -5 0
v -15 -5 0
v -16 -5 0
v 0 -6 0
v -1 -6 0
v -2 -6 0
v -3 -6 0
v -4 -6 0
v -5 -6 0
v -6 -6 0
v -7 -6 0
v -8 -6 0
v -9 -6 0
v -10 -6 0
v -11 -6 0
v -12 -6 0
v -13 -6 0
v -14 -6 0
v -15 -6 0
v -16 -6 0
v -2 -7 0
v -3 -7 0
v -4 -7 0
v -5 -7 0
v -6 -7 0
v -7 -7 0
v -8 -7 0
v -9 -7 0
v -10 -7 0
v -11 -7 0
v -12 -7 0
v -13 -7 0
v -14 -7 0
v -15 -7 0
v -16 -7 0
v -2 -8 0
v -3 -8 0
v -4 -8 0
v -5 -8 0
v -6 -8 0
v -7 -8 0
v -8 -8 0
v -9 -8 0
v -10 -8 0
v -11 -8 0
v -12 -8 0
v -13 -8 0
v -14 -8 0
v -2 -9 0
v -3 -9 0
v -4 -9 0
v -5 -9 0
v -6 -9 0
v -7 -9 0
v -8 -9 0
v -9 -9 0
v -10 -9 0
v -11 -9 0
v -12 -9 0
v -13 -9 0
v -14 -9 0
v -2 -10 0
v -3 -10 0
v -4 -10 0
v -5 -10 0
v -6 -10 0
v -7 -10 0
v -8 -10 0
v -9 -10 0
v -10 -10 0
v -11 -10 0
v -12 -10 0
v -13 -10 0
v -14 -10 0
v -2 -11 0
v -3 -11 0
v -4 -11 0
v -5 -11 0
v -6 -11 0
v -7 -11 0
v -8 -11 0
v -9 -11 0
v -10 -11 0
v -11 -11 0
v -12 -11 0
v -13 -11 0
v -14 -11 0
v -7 -12 0
v -8 -12 0
v -9 -12 0
v -7 -13 0
v -8 -13 0
v -9 -13 0
v -7 -14 0
v -8 -14 0
v -9 -14 0
v -7 -15 0
v -8 -15 0
v -9 -15 0

# Texture cooridinates (Count = 148)
vt 0.5444235 0.4847946
vt 0.5609484 0.4847946
vt 0.5609484 0.5152054
vt 0.5444235 0.5152054
vt 0.6322334 0.9049467
vt 0.6487583 0.9049467
vt 0.6487583 0.9353575
vt 0.6322334 0.9353575
vt 0.5268615 0.5817528
vt 0.5433864 0.5817528
vt 0.5433864 0.6121635
vt 0.5268615 0.6121635
vt 0.4917375 0.5817528
vt 0.5082625 0.5817528
vt 0.5082625 0.6121635
vt 0.4917375 0.6121635
vt 0.5444235 0.5817528
vt 0.5609484 0.5817528
vt 0.5609484 0.6121635
vt 0.5444235 0.6121635
vt 0.5092995 0.5494334
vt 0.5258244 0.5494334
vt 0.5258244 0.5798442
vt 0.5092995 0.5798442
vt 0.5619855 0.4847946
vt 0.5785104 0.4847946
vt 0.5785104 0.5152054
vt 0.5619855 0.5152054
vt 0.5795475 0.4847946
vt 0.5960724 0.4847946
vt 0.5960724 0.5152054
vt 0.5795475 0.5152054
vt 0.4917375 0.4847946
vt 0.5082625 0.4847946
vt 0.5082625 0.5152054
vt 0.4917375 0.5152054
vt 0.4741756 0.4847946
vt 0.4907005 0.4847946
vt 0.4907005 0.5152054
vt 0.4741756 0.5152054
vt 0.5268615 0.4847946
vt 0.5433864 0.4847946
vt 0.5433864 0.5152054
vt 0.5268615 0.5152054
vt 0.4741756 0.517114
vt 0.4907005 0.517114
vt 0.4907005 0.5475248
vt 0.4741756 0.5475248
vt 0.5444235 0.2908782
vt 0.5609484 0.2908782
vt 0.5609484 0.3212891
vt 0.5444235 0.3212891
vt 0.5619855 0.2908782
vt 0.5785104 0.2908782
vt 0.5785104 0.3212891
vt 0.5619855 0.3212891
vt 0.5795475 0.2908782
vt 0.5960724 0.2908782
vt 0.5960724 0.3212891
vt 0.5795475 0.3212891
vt 0.4741756 0.355517
vt 0.4907005 0.355517
vt 0.4907005 0.3859279
vt 0.4741756 0.3859279
vt 0.5444235 0.2585589
vt 0.5609484 0.2585589
vt 0.5609484 0.2889697
vt 0.5444235 0.2889697
vt 0.5619855 0.2585589
vt 0.5785104 0.2585589
vt 0.5785104 0.2889697
vt 0.5619855 0.2889697
vt 0.5795475 0.2585589
vt 0.5960724 0.2585589
vt 0.5960724 0.2889697
vt 0.5795475 0.2889697
vt 0.5444235 0.2262394
vt 0.5609484 0.2262394
vt 0.5609484 0.2566503
vt 0.5444235 0.2566503
vt 0.5619855 0.2262394
vt 0.5785104 0.2262394
vt 0.5785104 0.2566503
vt 0.5619855 0.2566503
vt 0.5795475 0.2262394
vt 0.5960724 0.2262394
vt 0.5960724 0.2566503
vt 0.5795475 0.2566503
vt 0.4741756 0.4201558
vt 0.4907005 0.4201558
vt 0.4907005 0.4505666
vt 0.4741756 0.4505666
vt 0.4917375 0.4201558
vt 0.5082625 0.4201558
vt 0.5082625 0.4505666
vt 0.4917375 0.4505666
vt 0.5092995 0.4201558
vt 0.5258244 0.4201558
vt 0.5258244 0.4505666
vt 0.5092995 0.4505666
vt 0.4917375 0.3231976
vt 0.5082625 0.3231976
vt 0.5082625 0.3536084
vt 0.4917375 0.3536084
vt 0.8605392 0.7756691
vt 0.8770641 0.7756691
vt 0.8770641 0.8060799
vt 0.8605392 0.8060799
vt 0.8605392 0.7433497
vt 0.8770641 0.7433497
vt 0.8770641 0.7737606
vt 0.8605392 0.7737606
vt 0.8956632 0.7110304
vt 0.9121881 0.7110304
vt 0.9121881 0.7414411
vt 0.8956632 0.7414411
vt 0.9132252 0.7110304
vt 0.92975 0.7110304
vt 0.92975 0.7414411
vt 0.9132252 0.7414411
vt 0.9307871 0.7110304
vt 0.9473121 0.7110304
vt 0.9473121 0.7414411
vt 0.9307871 0.7414411
vt 0.8605392 0.7110304
vt 0.8770641 0.7110304
vt 0.8770641 0.7414411
vt 0.8605392 0.7414411
vt 0.9132252 0.7433497
vt 0.92975 0.7433497
vt 0.92975 0.7737606
vt 0.9132252 0.7737606
vt 0.5619855 0.7110304
vt 0.5785104 0.7110304
vt 0.5785104 0.7414411
vt 0.5619855 0.7414411
vt 0.5795475 0.7110304
vt 0.5960724 0.7110304
vt 0.5960724 0.7414411
vt 0.5795475 0.7414411
vt 0.8781012 0.6463915
vt 0.8946261 0.6463915
vt 0.8946261 0.6768024
vt 0.8781012 0.6768024
vt 0.8781012 0.6140721
vt 0.8946261 0.6140721
vt 0.8946261 0.644483
vt 0.8781012 0.644483

# Normal
vn 0 0 -1

# Groups (Count = 3)

g mesh_0001
f 1/1/1 2/2/1 3/3/1 4/4/1
f 5/5/1 6/6/1 2/7/1 1/8/1
f 7/5/1 8/6/1 9/7/1 10/8/1
f 11/5/1 12/6/1 6/7/1 5/8/1
f 13/5/1 14/6/1 8/7/1 7/8/1
f 15/5/1 16/6/1 12/7/1 11/8/1
f 17/5/1 18/6/1 14/7/1 13/8/1
f 19/5/1 20/6/1 16/7/1 15/8/1
f 21/5/1 22/6/1 18/7/1 17/8/1
f 23/5/1 24/6/1 20/7/1 19/8/1
f 24/5/1 25/6/1 26/7/1 20/8/1
f 25/5/1 27/6/1 28/7/1 26/8/1
f 27/5/1 29/6/1 30/7/1 28/8/1
f 29/5/1 31/6/1 32/7/1 30/8/1
f 31/5/1 33/6/1 34/7/1 32/8/1
f 35/5/1 36/6/1 37/7/1 38/8/1
f 36/5/1 39/6/1 40/7/1 37/8/1
f 39/5/1 41/6/1 42/7/1 40/8/1
f 41/5/1 43/6/1 44/7/1 42/8/1
f 43/5/1 45/6/1 21/7/1 44/8/1
f 45/5/1 46/6/1 22/7/1 21/8/1
f 47/5/1 48/6/1 24/7/1 23/8/1
f 48/5/1 49/6/1 25/7/1 24/8/1
f 49/5/1 50/6/1 27/7/1 25/8/1
f 50/5/1 51/6/1 29/7/1 27/8/1
f 51/5/1 52/6/1 31/7/1 29/8/1
f 52/5/1 53/6/1 33/7/1 31/8/1
f 54/5/1 55/6/1 36/7/1 35/8/1
f 55/5/1 56/6/1 39/7/1 36/8/1
f 56/5/1 57/6/1 41/7/1 39/8/1
f 57/5/1 58/6/1 43/7/1 41/8/1
f 58/5/1 59/6/1 45/7/1 43/8/1
f 59/5/1 60/6/1 46/7/1 45/8/1
f 61/5/1 62/6/1 48/7/1 47/8/1
f 62/5/1 63/6/1 49/7/1 48/8/1
f 63/5/1 64/6/1 50/7/1 49/8/1
f 64/5/1 65/6/1 51/7/1 50/8/1
f 65/5/1 66/6/1 52/7/1 51/8/1
f 66/5/1 67/6/1 53/7/1 52/8/1
f 68/5/1 69/6/1 55/7/1 54/8/1
f 69/5/1 70/6/1 56/7/1 55/8/1
f 70/5/1 71/6/1 57/7/1 56/8/1
f 71/5/1 72/6/1 58/7/1 57/8/1
f 72/5/1 73/6/1 59/7/1 58/8/1
f 73/5/1 74/6/1 60/7/1 59/8/1

g mesh_0002
f 75/9/1 76/10/1 77/11/1 78/12/1
f 76/13/1 79/14/1 80/15/1 77/16/1
f 79/13/1 81/14/1 82/15/1 80/16/1
f 81/13/1 83/14/1 84/15/1 82/16/1
f 83/13/1 85/14/1 86/15/1 84/16/1
f 85/13/1 87/14/1 88/15/1 86/16/1
f 87/13/1 89/14/1 90/15/1 88/16/1
f 89/13/1 91/14/1 92/15/1 90/16/1
f 91/13/1 93/14/1 94/15/1 92/16/1
f 93/13/1 95/14/1 96/15/1 94/16/1
f 95/13/1 97/14/1 98/15/1 96/16/1
f 97/13/1 99/14/1 100/15/1 98/16/1
f 99/13/1 101/14/1 102/15/1 100/16/1
f 101/13/1 103/14/1 104/15/1 102/16/1
f 103/13/1 105/14/1 106/15/1 104/16/1
f 105/17/1 107/18/1 108/19/1 106/20/1
f 109/21/1 110/22/1 76/23/1 75/24/1
f 110/1/1 111/2/1 79/3/1 76/4/1
f 111/25/1 112/26/1 81/27/1 79/28/1
f 112/25/1 113/26/1 83/27/1 81/28/1
f 113/25/1 114/26/1 85/27/1 83/28/1
f 114/25/1 115/26/1 87/27/1 85/28/1
f 115/25/1 116/26/1 89/27/1 87/28/1
f 116/25/1 117/26/1 91/27/1 89/28/1
f 117/25/1 118/26/1 93/27/1 91/28/1
f 118/25/1 119/26/1 95/27/1 93/28/1
f 119/25/1 120/26/1 97/27/1 95/28/1
f 120/25/1 121/26/1 99/27/1 97/28/1
f 121/25/1 122/26/1 101/27/1 99/28/1
f 122/25/1 123/26/1 103/27/1 101/28/1
f 123/29/1 124/30/1 105/31/1 103/32/1
f 124/21/1 125/22/1 107/23/1 105/24/1
f 126/21/1 127/22/1 110/23/1 109/24/1
f 127/1/1 128/2/1 111/3/1 110/4/1
f 128/25/1 129/26/1 112/27/1 111/28/1
f 129/25/1 130/26/1 113/27/1 112/28/1
f 130/25/1 131/26/1 114/27/1 113/28/1
f 131/25/1 132/26/1 115/27/1 114/28/1
f 132/25/1 133/26/1 116/27/1 115/28/1
f 133/25/1 134/26/1 117/27/1 116/28/1
f 134/25/1 135/26/1 118/27/1 117/28/1
f 135/25/1 136/26/1 119/27/1 118/28/1
f 136/25/1 137/26/1 120/27/1 119/28/1
f 137/25/1 138/26/1 121/27/1 120/28/1
f 138/25/1 139/26/1 122/27/1 121/28/1
f 139/25/1 140/26/1 123/27/1 122/28/1
f 140/29/1 141/30/1 124/31/1 123/32/1
f 141/21/1 142/22/1 125/23/1 124/24/1
f 143/21/1 144/22/1 127/23/1 126/24/1
f 144/1/1 145/2/1 128/3/1 127/4/1
f 145/25/1 146/26/1 129/27/1 128/28/1
f 146/25/1 147/26/1 130/27/1 129/28/1
f 147/25/1 148/26/1 131/27/1 130/28/1
f 148/25/1 149/26/1 132/27/1 131/28/1
f 149/25/1 150/26/1 133/27/1 132/28/1
f 150/25/1 151/26/1 134/27/1 133/28/1
f 151/25/1 152/26/1 135/27/1 134/28/1
f 152/25/1 153/26/1 136/27/1 135/28/1
f 153/25/1 154/26/1 137/27/1 136/28/1
f 154/25/1 155/26/1 138/27/1 137/28/1
f 155/25/1 156/26/1 139/27/1 138/28/1
f 156/25/1 157/26/1 140/27/1 139/28/1
f 157/29/1 158/30/1 141/31/1 140/32/1
f 158/21/1 159/22/1 142/23/1 141/24/1
f 160/21/1 161/22/1 144/23/1 143/24/1
f 161/1/1 162/2/1 145/3/1 144/4/1
f 162/25/1 163/26/1 146/27/1 145/28/1
f 163/25/1 164/26/1 147/27/1 146/28/1
f 164/25/1 165/26/1 148/27/1 147/28/1
f 165/25/1 166/26/1 149/27/1 148/28/1
f 166/25/1 167/26/1 150/27/1 149/28/1
f 167/25/1 168/26/1 151/27/1 150/28/1
f 168/25/1 169/26/1 152/27/1 151/28/1
f 169/25/1 170/26/1 153/27/1 152/28/1
f 170/25/1 171/26/1 154/27/1 153/28/1
f 171/25/1 172/26/1 155/27/1 154/28/1
f 172/25/1 173/26/1 156/27/1 155/28/1
f 173/25/1 174/26/1 157/27/1 156/28/1
f 174/29/1 175/30/1 158/31/1 157/32/1
f 175/21/1 176/22/1 159/23/1 158/24/1
f 177/21/1 178/22/1 161/23/1 160/24/1
f 178/1/1 179/2/1 162/3/1 161/4/1
f 179/25/1 180/26/1 163/27/1 162/28/1
f 180/25/1 181/26/1 164/27/1 163/28/1
f 181/25/1 182/26/1 165/27/1 164/28/1
f 182/25/1 183/26/1 166/27/1 165/28/1
f 183/25/1 184/26/1 167/27/1 166/28/1
f 184/25/1 185/26/1 168/27/1 167/28/1
f 185/25/1 186/26/1 169/27/1 168/28/1
f 186/25/1 187/26/1 170/27/1 169/28/1
f 187/25/1 188/26/1 171/27/1 170/28/1
f 188/25/1 189/26/1 172/27/1 171/28/1
f 189/25/1 190/26/1 173/27/1 172/28/1
f 190/25/1 191/26/1 174/27/1 173/28/1
f 191/29/1 192/30/1 175/31/1 174/32/1
f 192/21/1 193/22/1 176/23/1 175/24/1
f 4/21/1 3/22/1 178/23/1 177/24/1
f 3/33/1 194/34/1 179/35/1 178/36/1
f 194/37/1 195/38/1 180/39/1 179/40/1
f 195/37/1 196/38/1 181/39/1 180/40/1
f 196/37/1 197/38/1 182/39/1 181/40/1
f 197/37/1 198/38/1 183/39/1 182/40/1
f 198/37/1 199/38/1 184/39/1 183/40/1
f 199/37/1 200/38/1 185/39/1 184/40/1
f 200/37/1 201/38/1 186/39/1 185/40/1
f 201/37/1 202/38/1 187/39/1 186/40/1
f 202/37/1 203/38/1 188/39/1 187/40/1
f 203/37/1 204/38/1 189/39/1 188/40/1
f 204/37/1 205/38/1 190/39/1 189/40/1
f 205/37/1 206/38/1 191/39/1 190/40/1
f 206/41/1 207/42/1 192/43/1 191/44/1
f 207/21/1 208/22/1 193/23/1 192/24/1
f 1/45/1 2/46/1 3/47/1 4/48/1
f 2/49/1 209/50/1 194/51/1 3/52/1
f 209/53/1 210/54/1 195/55/1 194/56/1
f 210/53/1 211/54/1 196/55/1 195/56/1
f 211/53/1 212/54/1 197/55/1 196/56/1
f 212/53/1 213/54/1 198/55/1 197/56/1
f 213/53/1 214/54/1 199/55/1 198/56/1
f 214/53/1 215/54/1 200/55/1 199/56/1
f 215/53/1 216/54/1 201/55/1 200/56/1
f 216/53/1 217/54/1 202/55/1 201/56/1
f 217/53/1 218/54/1 203/55/1 202/56/1
f 218/53/1 219/54/1 204/55/1 203/56/1
f 219/53/1 220/54/1 205/55/1 204/56/1
f 220/53/1 221/54/1 206/55/1 205/56/1
f 221/57/1 10/58/1 207/59/1 206/60/1
f 10/45/1 9/46/1 208/47/1 207/48/1
f 5/61/1 6/62/1 2/63/1 1/64/1
f 6/65/1 222/66/1 209/67/1 2/68/1
f 222/69/1 223/70/1 210/71/1 209/72/1
f 223/69/1 224/70/1 211/71/1 210/72/1
f 224/69/1 225/70/1 212/71/1 211/72/1
f 225/69/1 226/70/1 213/71/1 212/72/1
f 226/69/1 227/70/1 214/71/1 213/72/1
f 227/69/1 228/70/1 215/71/1 214/72/1
f 228/69/1 229/70/1 216/71/1 215/72/1
f 229/69/1 230/70/1 217/71/1 216/72/1
f 230/69/1 231/70/1 218/71/1 217/72/1
f 231/69/1 232/70/1 219/71/1 218/72/1
f 232/69/1 233/70/1 220/71/1 219/72/1
f 233/69/1 234/70/1 221/71/1 220/72/1
f 234/73/1 7/74/1 10/75/1 221/76/1
f 7/61/1 8/62/1 9/63/1 10/64/1
f 11/61/1 12/62/1 6/63/1 5/64/1
f 12/65/1 235/66/1 222/67/1 6/68/1
f 235/69/1 236/70/1 223/71/1 222/72/1
f 236/69/1 237/70/1 224/71/1 223/72/1
f 237/69/1 238/70/1 225/71/1 224/72/1
f 238/69/1 239/70/1 226/71/1 225/72/1
f 239/69/1 240/70/1 227/71/1 226/72/1
f 240/69/1 241/70/1 228/71/1 227/72/1
f 241/69/1 242/70/1 229/71/1 228/72/1
f 242/69/1 243/70/1 230/71/1 229/72/1
f 243/69/1 244/70/1 231/71/1 230/72/1
f 244/69/1 245/70/1 232/71/1 231/72/1
f 245/69/1 246/70/1 233/71/1 232/72/1
f 246/69/1 247/70/1 234/71/1 233/72/1
f 247/73/1 13/74/1 7/75/1 234/76/1
f 13/61/1 14/62/1 8/63/1 7/64/1
f 15/61/1 16/62/1 12/63/1 11/64/1
f 16/65/1 248/66/1 235/67/1 12/68/1
f 248/69/1 249/70/1 236/71/1 235/72/1
f 249/69/1 250/70/1 237/71/1 236/72/1
f 250/69/1 251/70/1 238/71/1 237/72/1
f 251/69/1 252/70/1 239/71/1 238/72/1
f 252/69/1 253/70/1 240/71/1 239/72/1
f 253/69/1 254/70/1 241/71/1 240/72/1
f 254/69/1 255/70/1 242/71/1 241/72/1
f 255/69/1 256/70/1 243/71/1 242/72/1
f 256/69/1 257/70/1 244/71/1 243/72/1
f 257/69/1 258/70/1 245/71/1 244/72/1
f 258/69/1 259/70/1 246/71/1 245/72/1
f 259/69/1 260/70/1 247/71/1 246/72/1
f 260/73/1 17/74/1 13/75/1 247/76/1
f 17/61/1 18/62/1 14/63/1 13/64/1
f 19/61/1 20/62/1 16/63/1 15/64/1
f 20/77/1 26/78/1 248/79/1 16/80/1
f 26/81/1 28/82/1 249/83/1 248/84/1
f 28/81/1 30/82/1 250/83/1 249/84/1
f 30/81/1 32/82/1 251/83/1 250/84/1
f 32/81/1 34/82/1 252/83/1 251/84/1
f 34/81/1 261/82/1 253/83/1 252/84/1
f 261/81/1 262/82/1 254/83/1 253/84/1
f 262/81/1 263/82/1 255/83/1 254/84/1
f 263/81/1 38/82/1 256/83/1 255/84/1
f 38/81/1 37/82/1 257/83/1 256/84/1
f 37/81/1 40/82/1 258/83/1 257/84/1
f 40/81/1 42/82/1 259/83/1 258/84/1
f 42/81/1 44/82/1 260/83/1 259/84/1
f 44/85/1 21/86/1 17/87/1 260/88/1
f 21/61/1 22/62/1 18/63/1 17/64/1
f 23/61/1 24/62/1 20/63/1 19/64/1
f 24/61/1 25/62/1 26/63/1 20/64/1
f 25/61/1 27/62/1 28/63/1 26/64/1
f 27/61/1 29/62/1 30/63/1 28/64/1
f 29/61/1 31/62/1 32/63/1 30/64/1
f 31/61/1 33/62/1 34/63/1 32/64/1
f 33/89/1 264/90/1 261/91/1 34/92/1
f 264/93/1 265/94/1 262/95/1 261/96/1
f 265/93/1 266/94/1 263/95/1 262/96/1
f 266/97/1 35/98/1 38/99/1 263/100/1
f 35/61/1 36/62/1 37/63/1 38/64/1
f 36/61/1 39/62/1 40/63/1 37/64/1
f 39/61/1 41/62/1 42/63/1 40/64/1
f 41/61/1 43/62/1 44/63/1 42/64/1
f 43/61/1 45/62/1 21/63/1 44/64/1
f 45/61/1 46/62/1 22/63/1 21/64/1
f 47/61/1 48/62/1 24/63/1 23/64/1
f 48/61/1 49/62/1 25/63/1 24/64/1
f 49/61/1 50/62/1 27/63/1 25/64/1
f 50/61/1 51/62/1 29/63/1 27/64/1
f 51/61/1 52/62/1 31/63/1 29/64/1
f 52/61/1 53/62/1 33/63/1 31/64/1
f 53/89/1 267/90/1 264/91/1 33/92/1
f 267/93/1 268/94/1 265/95/1 264/96/1
f 268/93/1 269/94/1 266/95/1 265/96/1
f 269/97/1 54/98/1 35/99/1 266/100/1
f 54/61/1 55/62/1 36/63/1 35/64/1
f 55/61/1 56/62/1 39/63/1 36/64/1
f 56/61/1 57/62/1 41/63/1 39/64/1
f 57/61/1 58/62/1 43/63/1 41/64/1
f 58/61/1 59/62/1 45/63/1 43/64/1
f 59/61/1 60/62/1 46/63/1 45/64/1
f 61/101/1 62/102/1 48/103/1 47/104/1
f 62/101/1 63/102/1 49/103/1 48/104/1
f 63/101/1 64/102/1 50/103/1 49/104/1
f 64/101/1 65/102/1 51/103/1 50/104/1
f 65/101/1 66/102/1 52/103/1 51/104/1
f 66/101/1 67/102/1 53/103/1 52/104/1
f 67/89/1 270/90/1 267/91/1 53/92/1
f 270/93/1 271/94/1 268/95/1 267/96/1
f 271/93/1 272/94/1 269/95/1 268/96/1
f 272/97/1 68/98/1 54/99/1 269/100/1
f 68/101/1 69/102/1 55/103/1 54/104/1
f 69/101/1 70/102/1 56/103/1 55/104/1
f 70/101/1 71/102/1 57/103/1 56/104/1
f 71/101/1 72/102/1 58/103/1 57/104/1
f 72/101/1 73/102/1 59/103/1 58/104/1
f 73/101/1 74/102/1 60/103/1 59/104/1

g mesh_0003
f 128/105/1 129/106/1 112/107/1 111/108/1
f 129/105/1 130/106/1 113/107/1 112/108/1
f 138/105/1 139/106/1 122/107/1 121/108/1
f 139/105/1 140/106/1 123/107/1 122/108/1
f 145/109/1 146/110/1 129/111/1 128/112/1
f 146/109/1 147/110/1 130/111/1 129/112/1
f 149/113/1 150/114/1 133/115/1 132/116/1
f 150/117/1 151/118/1 134/119/1 133/120/1
f 151/117/1 152/118/1 135/119/1 134/120/1
f 152/121/1 153/122/1 136/123/1 135/124/1
f 155/109/1 156/110/1 139/111/1 138/112/1
f 156/109/1 157/110/1 140/111/1 139/112/1
f 162/125/1 163/126/1 146/127/1 145/128/1
f 163/125/1 164/126/1 147/127/1 146/128/1
f 172/125/1 173/126/1 156/127/1 155/128/1
f 173/125/1 174/126/1 157/127/1 156/128/1
f 183/129/1 184/130/1 167/131/1 166/132/1
f 186/129/1 187/130/1 170/131/1 169/132/1
f 199/133/1 200/134/1 185/135/1 184/136/1
f 200/137/1 201/138/1 186/139/1 185/140/1
f 251/141/1 252/142/1 239/143/1 238/144/1
f 256/141/1 257/142/1 244/143/1 243/144/1
f 32/145/1 34/146/1 252/147/1 251/148/1
f 38/145/1 37/146/1 257/147/1 256/148/1

